<svg width="32" height="32" viewBox="0 0 32 32" fill="none" xmlns="http://www.w3.org/2000/svg">
<path d="M27.0202 22.82C27.0202 22.8683 27.0394 22.9146 27.0735 22.9487C27.1076 22.9829 27.1539 23.002 27.2022 23.002C27.2505 23.002 27.2968 22.9829 27.3309 22.9487C27.365 22.9146 27.3842 22.8683 27.3842 22.82C27.3842 22.7718 27.365 22.7255 27.3309 22.6914C27.2968 22.6572 27.2505 22.638 27.2022 22.638C27.1539 22.638 27.1076 22.6572 27.0735 22.6914C27.0394 22.7255 27.0202 22.7718 27.0202 22.82ZM23.0022 26.966C23.0022 27.0621 23.0403 27.1541 23.1082 27.222C23.1761 27.2899 23.2682 27.328 23.3642 27.328C23.4602 27.328 23.5523 27.2899 23.6202 27.222C23.6881 27.1541 23.7262 27.0621 23.7262 26.966C23.7262 26.87 23.6881 26.778 23.6202 26.7101C23.5523 26.6422 23.4602 26.604 23.3642 26.604C23.2682 26.604 23.1761 26.6422 23.1082 26.7101C23.0403 26.778 23.0022 26.87 23.0022 26.966ZM17.5862 29.1C17.5862 29.2443 17.6435 29.3827 17.7455 29.4847C17.8476 29.5867 17.9859 29.644 18.1302 29.644C18.2745 29.644 18.4128 29.5867 18.5149 29.4847C18.6169 29.3827 18.6742 29.2443 18.6742 29.1C18.6742 29.0286 18.6601 28.9579 18.6328 28.8919C18.6055 28.8259 18.5654 28.7659 18.5149 28.7154C18.4644 28.6649 18.4044 28.6248 18.3384 28.5975C18.2724 28.5701 18.2016 28.556 18.1302 28.556C18.0588 28.556 17.988 28.5701 17.922 28.5975C17.856 28.6248 17.7961 28.6649 17.7455 28.7154C17.695 28.7659 17.655 28.8259 17.6276 28.8919C17.6003 28.9579 17.5862 29.0286 17.5862 29.1ZM11.7562 28.814C11.7562 29.0061 11.8325 29.1902 11.9683 29.326C12.104 29.4618 12.2882 29.538 12.4802 29.538C12.6722 29.538 12.8564 29.4618 12.9921 29.326C13.1279 29.1902 13.2042 29.0061 13.2042 28.814C13.2042 28.622 13.1279 28.4379 12.9921 28.3021C12.8564 28.1663 12.6722 28.09 12.4802 28.09C12.2882 28.09 12.104 28.1663 11.9683 28.3021C11.8325 28.4379 11.7562 28.622 11.7562 28.814ZM6.5842 26.16C6.5842 26.279 6.60764 26.3968 6.65317 26.5068C6.6987 26.6167 6.76543 26.7166 6.84956 26.8007C6.93369 26.8848 7.03357 26.9515 7.14349 26.9971C7.25341 27.0426 7.37123 27.066 7.4902 27.066C7.60918 27.066 7.72699 27.0426 7.83691 26.9971C7.94684 26.9515 8.04671 26.8848 8.13084 26.8007C8.21497 26.7166 8.28171 26.6167 8.32724 26.5068C8.37277 26.3968 8.3962 26.279 8.3962 26.16C8.3962 26.0411 8.37277 25.9233 8.32724 25.8133C8.28171 25.7034 8.21497 25.6035 8.13084 25.5194C8.04671 25.4353 7.94684 25.3685 7.83691 25.323C7.72699 25.2775 7.60918 25.254 7.4902 25.254C7.37123 25.254 7.25341 25.2775 7.14349 25.323C7.03357 25.3685 6.93369 25.4353 6.84956 25.5194C6.76543 25.6035 6.6987 25.7034 6.65317 25.8133C6.60764 25.9233 6.5842 26.0411 6.5842 26.16ZM3.0022 21.648C3.0022 21.9366 3.11683 22.2133 3.32087 22.4174C3.52491 22.6214 3.80165 22.736 4.0902 22.736C4.37876 22.736 4.6555 22.6214 4.85954 22.4174C5.06357 22.2133 5.1782 21.9366 5.1782 21.648C5.1782 21.3595 5.06357 21.0828 4.85954 20.8787C4.6555 20.6747 4.37876 20.56 4.0902 20.56C3.80165 20.56 3.52491 20.6747 3.32087 20.8787C3.11683 21.0828 3.0022 21.3595 3.0022 21.648ZM1.6582 16.108C1.6582 16.2746 1.691 16.4394 1.75472 16.5933C1.81845 16.7471 1.91185 16.8869 2.02959 17.0047C2.14734 17.1224 2.28712 17.2158 2.44096 17.2795C2.5948 17.3432 2.75969 17.376 2.9262 17.376C3.09272 17.376 3.2576 17.3432 3.41145 17.2795C3.56529 17.2158 3.70507 17.1224 3.82281 17.0047C3.94056 16.8869 4.03396 16.7471 4.09768 16.5933C4.16141 16.4394 4.1942 16.2746 4.1942 16.108C4.1942 15.7718 4.06061 15.4492 3.82281 15.2114C3.58502 14.9736 3.2625 14.84 2.9262 14.84C2.58991 14.84 2.26739 14.9736 2.02959 15.2114C1.7918 15.4492 1.6582 15.7718 1.6582 16.108ZM2.7642 10.604C2.7642 10.7945 2.80171 10.983 2.87458 11.1589C2.94745 11.3349 3.05425 11.4947 3.1889 11.6294C3.32354 11.764 3.48339 11.8708 3.65931 11.9437C3.83523 12.0165 4.02379 12.054 4.2142 12.054C4.59877 12.054 4.96758 11.9013 5.23951 11.6294C5.51144 11.3574 5.6642 10.9886 5.6642 10.604C5.6642 10.2195 5.51144 9.85067 5.23951 9.57874C4.96758 9.30681 4.59877 9.15405 4.2142 9.15405C3.82964 9.15405 3.46083 9.30681 3.1889 9.57874C2.91697 9.85067 2.7642 10.2195 2.7642 10.604ZM6.0822 6.16605C6.0822 6.38036 6.12442 6.59258 6.20643 6.79059C6.28845 6.98859 6.40866 7.1685 6.5602 7.32004C6.71175 7.47159 6.89166 7.5918 7.08966 7.67382C7.28767 7.75583 7.49989 7.79805 7.7142 7.79805C7.92852 7.79805 8.14074 7.75583 8.33874 7.67382C8.53675 7.5918 8.71666 7.47159 8.8682 7.32004C9.01975 7.1685 9.13996 6.98859 9.22197 6.79059C9.30399 6.59258 9.3462 6.38036 9.3462 6.16605C9.3462 5.73321 9.17426 5.31811 8.8682 5.01205C8.56214 4.70599 8.14704 4.53405 7.7142 4.53405C7.28137 4.53405 6.86626 4.70599 6.5602 5.01205C6.25415 5.31811 6.0822 5.73321 6.0822 6.16605ZM10.9542 3.62405C10.9542 3.862 11.0011 4.09763 11.0921 4.31747C11.1832 4.53731 11.3167 4.73706 11.4849 4.90532C11.6532 5.07358 11.8529 5.20705 12.0728 5.29812C12.2926 5.38918 12.5282 5.43605 12.7662 5.43605C13.2468 5.43605 13.7077 5.24514 14.0475 4.90532C14.3873 4.56551 14.5782 4.10462 14.5782 3.62405C14.5782 3.14347 14.3873 2.68258 14.0475 2.34277C13.7077 2.00295 13.2468 1.81205 12.7662 1.81205C12.2856 1.81205 11.8247 2.00295 11.4849 2.34277C11.1451 2.68258 10.9542 3.14347 10.9542 3.62405ZM16.4262 3.46605C16.4262 3.99489 16.6363 4.50207 17.0102 4.87602C17.3842 5.24996 17.8914 5.46005 18.4202 5.46005C18.949 5.46005 19.4562 5.24996 19.8302 4.87602C20.2041 4.50207 20.4142 3.99489 20.4142 3.46605C20.4142 2.9372 20.2041 2.43002 19.8302 2.05607C19.4562 1.68213 18.949 1.47205 18.4202 1.47205C17.8914 1.47205 17.3842 1.68213 17.0102 2.05607C16.6363 2.43002 16.4262 2.9372 16.4262 3.46605ZM21.4362 5.72005C21.4362 6.29663 21.6652 6.84959 22.073 7.2573C22.4807 7.665 23.0336 7.89405 23.6102 7.89405C24.1868 7.89405 24.7397 7.665 25.1475 7.2573C25.5552 6.84959 25.7842 6.29663 25.7842 5.72005C25.7842 5.14347 25.5552 4.5905 25.1475 4.1828C24.7397 3.77509 24.1868 3.54605 23.6102 3.54605C23.0336 3.54605 22.4807 3.77509 22.073 4.1828C21.6652 4.5905 21.4362 5.14347 21.4362 5.72005ZM24.9962 9.95405C24.9962 10.2634 25.0571 10.5698 25.1755 10.8556C25.2939 11.1415 25.4675 11.4012 25.6863 11.62C25.905 11.8388 26.1648 12.0123 26.4506 12.1307C26.7364 12.2491 27.0428 12.31 27.3522 12.31C27.6616 12.31 27.968 12.2491 28.2538 12.1307C28.5396 12.0123 28.7994 11.8388 29.0181 11.62C29.2369 11.4012 29.4105 11.1415 29.5289 10.8556C29.6473 10.5698 29.7082 10.2634 29.7082 9.95405C29.7082 9.64465 29.6473 9.33829 29.5289 9.05244C29.4105 8.7666 29.2369 8.50688 29.0181 8.2881C28.7994 8.06933 28.5396 7.89579 28.2538 7.77739C27.968 7.65899 27.6616 7.59805 27.3522 7.59805C27.0428 7.59805 26.7364 7.65899 26.4506 7.77739C26.1648 7.89579 25.905 8.06933 25.6863 8.2881C25.4675 8.50688 25.2939 8.7666 25.1755 9.05244C25.0571 9.33829 24.9962 9.64465 24.9962 9.95405ZM26.4122 15.438C26.4122 15.7713 26.4778 16.1014 26.6054 16.4093C26.7329 16.7172 26.9199 16.997 27.1556 17.2327C27.3912 17.4684 27.671 17.6553 27.979 17.7829C28.2869 17.9104 28.6169 17.976 28.9502 17.976C29.6233 17.976 30.2689 17.7087 30.7448 17.2327C31.2208 16.7567 31.4882 16.1112 31.4882 15.438C31.4882 14.7649 31.2208 14.1194 30.7448 13.6434C30.2689 13.1674 29.6233 12.9 28.9502 12.9C28.2771 12.9 27.6315 13.1674 27.1556 13.6434C26.6796 14.1194 26.4122 14.7649 26.4122 15.438Z" fill="black"/>
</svg>
